<?xml version="1.0" standalone="no"?>
<!DOCTYPE svg PUBLIC "-//W3C//DTD SVG 20010904//EN"
 "http://www.w3.org/TR/2001/REC-SVG-20010904/DTD/svg10.dtd">
<svg version="1.0" xmlns="http://www.w3.org/2000/svg"
 width="1000.000000pt" height="1000.000000pt" viewBox="0 0 1000.000000 1000.000000"
 preserveAspectRatio="xMidYMid meet">
<metadata>
Created by potrace 1.16, written by Peter Selinger 2001-2019
</metadata>
<g transform="translate(0.000000,1000.000000) scale(0.100000,-0.100000)"
fill="#000000" stroke="none">
<path d="M0 5000 l0 -5000 5000 0 5000 0 0 5000 0 5000 -5000 0 -5000 0 0
-5000z m4297 3578 c17 -10 40 -31 49 -47 10 -17 20 -28 23 -26 21 12 0 -137
-74 -540 -47 -253 -124 -665 -170 -915 -46 -250 -107 -581 -135 -735 -28 -154
-53 -288 -56 -297 -5 -17 57 -18 1195 -18 l1201 0 5 23 c9 39 42 213 104 537
33 173 92 479 130 680 63 329 92 482 190 1015 16 88 35 173 41 190 20 51 59
94 113 123 l52 27 390 3 c426 3 452 1 504 -50 49 -48 56 -93 32 -217 -30 -158
-206 -1110 -367 -1986 -30 -165 -58 -310 -61 -322 l-5 -23 326 0 c179 0 326
-3 326 -7 0 -3 -23 -85 -51 -182 -28 -97 -70 -241 -93 -321 l-42 -145 -331 -3
-332 -2 -10 -53 c-6 -28 -17 -85 -25 -124 l-14 -73 295 0 c167 0 293 -4 291
-9 -1 -5 -57 -153 -123 -330 l-120 -321 -232 0 c-128 0 -233 -3 -233 -7 0 -9
-128 -706 -140 -763 -5 -25 -35 -182 -65 -350 -31 -168 -101 -548 -156 -845
-168 -914 -149 -832 -216 -897 -69 -67 -79 -68 -519 -68 -340 0 -399 2 -434
16 -22 9 -45 25 -51 35 -5 11 -14 17 -18 15 -4 -3 -8 0 -9 7 0 7 -5 28 -10 47
-10 39 -3 85 102 645 36 193 115 620 176 950 176 958 222 1200 227 1208 6 9
-2378 9 -2393 -1 -17 -11 -145 -658 -349 -1772 -31 -168 -64 -350 -75 -405
-10 -55 -25 -138 -34 -185 -8 -47 -27 -146 -41 -220 -15 -74 -24 -142 -22
-152 3 -10 2 -16 -2 -14 -8 5 -37 -63 -33 -77 1 -4 -4 -6 -10 -5 -7 2 -11 -4
-10 -12 2 -8 0 -12 -4 -8 -4 4 -22 -6 -40 -22 -18 -16 -50 -34 -71 -39 -24 -7
-188 -11 -431 -11 -326 0 -399 3 -428 15 -20 8 -41 12 -47 8 -5 -3 -7 -1 -3 5
3 6 2 13 -3 17 -5 3 -14 -3 -20 -12 -6 -10 -11 -13 -11 -7 0 5 6 16 12 22 10
10 7 17 -13 35 -14 12 -20 19 -14 15 6 -4 10 20 11 70 0 95 7 172 14 172 8 0
31 140 25 150 -3 5 -2 10 3 12 8 3 64 288 61 305 -1 4 1 15 4 23 13 32 96 513
90 522 -3 6 -1 13 4 17 5 3 15 35 21 71 6 36 23 128 37 205 15 77 28 151 30
165 7 42 43 232 55 288 7 29 10 62 7 73 -3 10 -2 17 2 15 9 -6 74 350 67 363
-4 5 -2 11 2 13 5 1 23 80 40 173 30 158 38 219 25 187 -2 -6 -8 -10 -13 -7
-5 3 -107 6 -229 8 -200 2 -220 4 -225 20 -2 10 0 14 7 10 6 -4 8 0 4 10 -3
10 -2 17 3 17 14 0 32 67 25 92 -5 17 -4 19 4 8 8 -12 12 -9 21 15 31 80 39
108 33 119 -3 6 -2 8 2 3 10 -8 136 316 137 350 0 13 4 20 9 17 5 -3 9 -1 9 5
0 5 -8 15 -17 20 -10 6 -13 11 -7 11 6 0 17 -7 24 -16 11 -13 41 -15 197 -13
117 1 188 6 196 13 11 8 82 337 103 471 2 11 52 265 113 565 92 460 159 811
246 1290 9 47 20 105 25 130 5 25 44 232 86 460 42 228 82 427 90 443 8 15 33
46 54 67 67 67 82 69 535 67 359 -2 403 -4 432 -19z m-3103 -460 c-3 -5 5 -6
18 -3 33 8 59 -20 29 -30 -19 -6 -21 -14 -21 -86 0 -46 -4 -79 -10 -79 -7 0
-11 -1003 -12 -2964 -2 -1630 0 -2962 3 -2960 4 2 9 -5 12 -16 7 -27 23 -25
30 2 4 12 9 19 13 15 4 -4 2 -17 -4 -30 -13 -25 -21 -148 -9 -140 4 2 8 16 8
31 1 27 1 27 8 -3 4 -16 4 -35 -1 -41 -5 -7 -2 -14 7 -18 9 -3 15 -1 14 7 -3
26 2 37 17 37 8 0 13 -4 9 -9 -3 -5 -1 -12 5 -16 6 -4 8 -11 5 -16 -4 -5 5
-20 19 -34 14 -14 20 -27 15 -31 -6 -3 -6 -10 -1 -17 5 -7 9 -20 9 -30 0 -14
-6 -12 -29 12 -18 18 -27 35 -22 42 5 9 2 10 -9 6 -9 -3 -19 -2 -22 3 -3 4 6
7 20 5 14 -1 25 2 25 6 0 5 -10 9 -22 9 -13 1 -43 19 -68 42 -25 23 -38 36
-29 30 13 -10 15 -8 13 11 -1 12 -3 23 -3 25 -3 8 2 17 10 15 5 -2 9 3 9 11 0
8 -9 12 -24 11 -33 -4 -48 -14 -40 -27 5 -7 11 -5 19 6 11 14 13 14 13 -9 0
-30 -9 -32 -33 -5 -10 11 -15 20 -10 20 4 0 -11 20 -34 45 -22 24 -41 48 -41
51 0 4 3 5 6 1 10 -10 34 19 33 40 0 15 -2 15 -11 -4 -6 -12 -18 -23 -28 -26
-14 -4 -16 1 -10 33 6 31 4 37 -9 35 -9 -1 -15 -10 -15 -19 2 -24 -4 -20 -21
14 -9 17 -11 30 -6 30 5 0 11 -6 14 -12 2 -8 3 -7 3 2 -1 8 -11 19 -24 25 -13
6 -20 16 -17 24 4 11 3 11 -9 2 -11 -9 -16 -9 -22 0 -5 8 -3 10 7 5 8 -4 7 -2
-2 6 -9 7 -15 23 -13 34 2 12 -5 29 -16 39 -11 10 -20 24 -20 31 0 7 -5 14
-11 16 -12 4 -2 35 14 41 7 2 1 2 -13 -1 -14 -2 -30 -5 -37 -5 -7 0 -10 -4 -7
-9 3 -5 10 -5 16 -2 6 4 9 1 6 -6 -2 -7 6 -24 19 -38 12 -13 21 -29 20 -36 -1
-6 4 -10 11 -9 13 3 16 -9 6 -20 -4 -4 -26 22 -49 56 -30 44 -39 66 -32 75 7
9 6 11 -5 7 -9 -4 -22 4 -32 20 -19 30 -14 45 14 40 11 -2 22 0 25 4 2 5 -12
8 -33 7 -25 -1 -36 3 -34 12 3 18 -17 54 -28 47 -5 -3 -11 -1 -14 4 -3 5 1 12
10 15 8 3 12 10 9 16 -3 5 -3 15 1 21 5 8 9 7 14 -1 5 -8 7 -3 7 13 l-2 27
-17 -23 c-10 -12 -18 -18 -18 -13 0 5 -7 3 -15 -4 -12 -10 -17 -5 -30 26 -8
20 -13 47 -9 58 6 21 6 21 -10 1 -15 -20 -15 -20 -16 3 0 12 -5 22 -11 22 -8
0 -8 4 0 14 13 15 5 46 -12 46 -7 0 -7 -4 1 -12 14 -14 16 -28 4 -28 -13 0
-32 48 -26 64 3 8 1 17 -5 20 -6 4 -8 14 -5 24 5 14 4 15 -5 2 -6 -9 -7 -18
-1 -24 6 -6 10 -15 10 -21 0 -5 -7 -2 -15 8 -7 11 -11 26 -8 35 5 11 3 13 -6
7 -10 -6 -11 -3 -1 15 10 18 14 20 21 9 5 -8 9 -9 9 -3 0 12 -29 41 -31 30 -1
-3 -2 -10 -3 -15 -3 -20 -16 -23 -16 -3 0 11 -4 24 -10 27 -12 7 -65 115 -65
131 0 6 -6 19 -14 28 -8 9 -11 19 -8 22 3 4 0 13 -8 21 -8 8 -15 25 -15 38 0
31 -10 56 -20 50 -10 -6 -46 84 -42 103 2 6 -1 12 -7 12 -13 0 -31 58 -24 77
4 10 2 14 -4 10 -10 -6 -20 16 -29 63 -2 8 -7 23 -12 35 -24 53 -31 76 -26 90
4 8 2 15 -4 15 -6 0 -8 10 -5 23 4 18 3 19 -7 7 -9 -12 -11 -10 -7 12 2 15 0
25 -5 22 -5 -3 -6 7 -3 23 4 17 3 23 -2 16 -6 -8 -15 9 -26 52 -14 52 -15 70
-6 88 12 21 11 21 -6 7 -17 -14 -18 -13 -13 5 3 11 9 29 13 40 7 19 7 19 -7 1
-14 -18 -15 -18 -21 5 -3 12 -1 29 4 36 6 7 9 18 6 25 -3 8 -6 6 -6 -5 -1 -10
-6 -15 -12 -12 -6 4 -8 20 -4 38 4 22 3 28 -3 18 -7 -10 -12 2 -18 40 -5 30
-9 61 -9 69 -1 8 -4 22 -7 30 -11 27 -29 142 -24 148 3 3 2 10 -3 16 -4 6 -11
36 -15 66 -3 30 -9 66 -12 80 -5 21 -4 22 6 10 10 -13 11 -12 5 5 -19 53 -25
91 -35 230 -6 83 -11 161 -11 175 -6 282 6 661 25 760 2 14 5 45 6 70 1 36 3
41 10 25 7 -15 8 -10 4 16 -5 32 28 262 43 299 4 8 7 24 8 35 4 50 18 105 26
105 5 0 6 12 3 26 -5 19 -4 25 5 20 7 -5 10 0 9 11 -4 27 13 104 21 99 3 -2 7
14 7 37 1 23 7 43 13 45 6 2 11 17 11 33 0 30 24 99 35 99 3 0 1 -9 -5 -19 -7
-14 -7 -22 0 -26 6 -4 7 -11 4 -17 -4 -7 -2 -8 5 -4 8 5 9 12 2 20 -6 7 -6 17
-1 26 5 8 5 19 0 25 -11 14 13 99 25 88 4 -4 5 -3 2 3 -6 10 13 77 25 89 3 3
4 -5 3 -17 -1 -13 0 -15 2 -5 2 9 9 17 14 17 5 0 9 4 9 10 0 5 -5 9 -11 7 -6
-1 -14 4 -17 12 -3 8 0 11 6 7 6 -4 10 1 9 12 -2 28 24 83 36 75 6 -4 7 -1 3
6 -5 7 -1 20 7 29 8 9 18 28 21 42 6 19 5 21 -3 10 -12 -17 -14 -10 -5 14 3 9
10 13 15 10 5 -3 9 6 9 19 0 32 26 83 33 65 3 -7 5 -2 4 12 0 14 11 51 26 82
15 31 27 60 27 65 0 4 8 17 16 28 16 19 16 19 10 -5 -6 -25 -6 -25 5 -2 7 12
16 22 21 22 4 0 8 4 8 10 0 5 -8 6 -18 3 -15 -6 -15 -5 -3 10 7 9 11 17 7 17
-4 0 1 14 9 30 9 17 20 28 25 25 6 -4 9 4 7 17 -2 19 2 22 23 20 23 -3 24 -3
7 10 -18 13 -17 15 3 41 27 34 42 31 57 -13 l12 -35 -5 35 c-4 19 -10 39 -15
45 -13 13 -11 25 2 22 6 -1 14 5 16 13 4 13 3 13 -6 0 -10 -13 -11 -13 -11 0
-1 12 -3 11 -11 -3 -5 -9 -7 -22 -3 -29 4 -7 3 -8 -4 -4 -7 4 -12 12 -12 17 0
14 51 60 60 54 3 -2 7 1 7 8 0 7 4 21 8 32 4 11 -2 5 -14 -12 -11 -18 -23 -33
-27 -33 -7 0 37 73 50 82 16 11 36 10 36 -2 0 -6 -5 -9 -11 -8 -6 2 -14 -4
-16 -12 -4 -13 -3 -13 6 0 10 13 11 13 11 0 1 -12 3 -12 11 2 5 10 7 29 3 43
-6 24 -7 25 -21 8 -13 -16 -13 -16 -3 5 6 12 15 22 21 22 6 0 7 5 4 10 -3 6
-1 11 4 11 6 1 16 2 23 3 6 0 12 11 13 23 1 13 -3 20 -9 16 -6 -3 -5 0 1 7 16
17 25 9 27 -23 0 -13 6 -24 13 -24 8 0 9 6 2 18 -5 10 -6 25 -3 33 4 11 1 16
-11 16 -13 0 -11 7 12 39 15 22 30 38 32 35 2 -2 -1 -9 -6 -16 -6 -7 -7 -22
-3 -33 6 -16 9 -10 16 25 9 53 8 50 19 73 6 15 10 16 16 5 13 -19 11 -36 -2
-18 -8 11 -9 8 -4 -13 3 -18 2 -26 -4 -23 -5 4 -9 -2 -9 -11 0 -10 -2 -27 -6
-38 -4 -11 3 -2 15 20 13 22 24 60 25 84 1 24 8 49 15 55 8 8 10 8 6 0 -4 -7
2 -11 15 -10 28 1 58 50 42 66 -9 9 -11 5 -10 -12 1 -15 -4 -22 -13 -20 -8 2
-11 -3 -8 -13 4 -8 2 -15 -2 -15 -5 0 -11 7 -15 15 -3 8 -1 15 4 15 6 0 9 3 8
8 -2 4 14 29 35 56 20 27 37 44 37 38 0 -6 -7 -18 -16 -26 -8 -9 -12 -21 -8
-27 4 -6 17 7 31 31 20 32 28 39 35 29 7 -10 8 -2 4 24 -3 22 -1 35 5 32 5 -4
9 0 9 8 0 7 11 24 25 37 13 12 22 26 20 30 -2 4 2 7 10 7 8 0 12 -4 9 -9z"/>
<path d="M3755 5318 c-7 -31 -45 -219 -45 -224 0 -2 550 -4 1223 -4 l1223 0
22 118 c12 64 22 120 22 125 0 4 -549 7 -1220 7 l-1220 0 -5 -22z"/>
<path d="M1070 4940 c0 -1725 4 -2820 9 -2820 5 0 11 8 13 17 9 46 -3 5623
-12 5623 -7 0 -10 -953 -10 -2820z"/>
</g>
</svg>
